# xmcd
#
# Track frame offsets:
#	150
#	8326
#	17302
#	22412
#	31613
#	41698
#	51771
#	61505
#	67826
#	75230
#	93128
#	99807
#	112889
#	124163
#	132375
#	141400
#	156059
#	165669
#	172656
#	179079
#	187322
#	196178
#	208253
#	213152
#
# Disc length: 2991 seconds
#
# Revision: 1
# Processed by: cddbd v1.5.2PL0 Copyright (c) Steve Scherf et al.
# Submitted via: audiograbber 1.83.01
#
DISCID=2d0bad18
DTITLE=VARIOS - CELEBRAÇOES ESPECIAIS IV
DYEAR=2006
DGENRE=LITURGICO
TTITLE0=CELEBRAÇÃO DA RECONCILIAÇÃO - Sabe quanto custa
TTITLE1=CELEBRAÇÃO DA RECONCILIAÇÃO - Convite gentil
TTITLE2=CELEBRAÇÃO DA RECONCILIAÇÃO - Como o Pai me amou
TTITLE3=CELEBRAÇÃO DA RECONCILIAÇÃO - Eu me entrego, Senhor
TTITLE4=CELEBRAÇÃO DA RECONCILIAÇÃO - Senhor, eu vou cantar
TTITLE5=MISSA DOS DOENTES - Senhos, aqui viemos
TTITLE6=MISSA DOS DOENTES - Na nossa vida
TTITLE7=MISSA DOS DOENTES - Aleluia, glória a Cristo
TTITLE8=MISSA DOS DOENTES - Um pouco de vinho
TTITLE9=MISSA DOS DOENTES - Pão que dá saúde
TTITLE10=MISSA DOS DOENTES - Jesus, filho de David
TTITLE11=CELEBRAÇÃO DA ESPERANÇA - Vou-lhes preparar
TTITLE12=CELEBRAÇÃO DA ESPERANÇA - Senhor, em ti espero
TTITLE13=CELEBRAÇÃO DA ESPERANÇA - Sou a vida
TTITLE14=CELEBRAÇÃO DA ESPERANÇA - Nem a vida, nem a morte
TTITLE15=CELEBRAÇÃO DA ESPERANÇA - A nossa vida
TTITLE16=CELEBRAÇÃO DA ESPERANÇA - Maria, ó Mãe cheia de graça
TTITLE17=CANTOS OPCIONAIS PARA A MISSA DOS DOENTES - Vimos, Senhor, à tua prese
TTITLE17=nça
TTITLE18=CANTOS OPCIONAIS PARA A MISSA DOS DOENTES - Bem-aventurados
TTITLE19=CANTOS OPCIONAIS PARA A MISSA DOS DOENTES - Tua Palavra, Senhor
TTITLE20=CANTOS OPCIONAIS PARA A MISSA DOS DOENTES - Senhor, aceita os dons
TTITLE21=CANTOS OPCIONAIS PARA A MISSA DOS DOENTES - Nesta Eucaristia
TTITLE22=CANTOS OPCIONAIS PARA A MISSA DOS DOENTES - Graças, louvores
TTITLE23=CANTOS OPCIONAIS PARA A MISSA DOS DOENTES - Hino da enfermeira
EXTD=
EXTT0=
EXTT1=
EXTT2=
EXTT3=
EXTT4=
EXTT5=
EXTT6=
EXTT7=
EXTT8=
EXTT9=
EXTT10=
EXTT11=
EXTT12=
EXTT13=
EXTT14=
EXTT15=
EXTT16=
EXTT17=
EXTT18=
EXTT19=
EXTT20=
EXTT21=
EXTT22=
EXTT23=
PLAYORDER=
